<svg xmlns="http://www.w3.org/2000/svg" width="1200" height="630" viewBox="0 0 1200 630">
  <defs>
    <linearGradient id="bg" x1="0%" y1="0%" x2="100%" y2="100%">
      <stop offset="0%" style="stop-color:#1a1a2e"/>
      <stop offset="100%" style="stop-color:#16213e"/>
    </linearGradient>
    <linearGradient id="accent" x1="0%" y1="0%" x2="100%" y2="0%">
      <stop offset="0%" style="stop-color:#22c55e"/>
      <stop offset="100%" style="stop-color:#16a34a"/>
    </linearGradient>
  </defs>
  <rect width="1200" height="630" fill="url(#bg)"/>
  <!-- Top accent bar -->
  <rect x="0" y="0" width="1200" height="4" fill="url(#accent)"/>
  <!-- Title -->
  <text x="80" y="200" font-family="system-ui, -apple-system, sans-serif" font-size="72" font-weight="700" fill="#ffffff">PhanGraphs</text>
  <text x="80" y="260" font-family="system-ui, -apple-system, sans-serif" font-size="28" font-weight="400" fill="#94a3b8">Song Sabermetrics for Phish</text>
  <!-- Stat labels -->
  <text x="80" y="340" font-family="ui-monospace, monospace" font-size="20" fill="#22c55e">WAR</text>
  <text x="160" y="340" font-family="system-ui, sans-serif" font-size="20" fill="#64748b">Wins Above Replacement</text>
  <text x="80" y="380" font-family="ui-monospace, monospace" font-size="20" fill="#22c55e">PVS</text>
  <text x="160" y="380" font-family="system-ui, sans-serif" font-size="20" fill="#64748b">Performance Value Score</text>
  <text x="80" y="420" font-family="ui-monospace, monospace" font-size="20" fill="#22c55e">JIS</text>
  <text x="160" y="420" font-family="system-ui, sans-serif" font-size="20" fill="#64748b">Jam Impact Score</text>
  <!-- Decorative sparkline -->
  <polyline points="700,400 730,360 760,380 790,320 820,340 850,280 880,300 910,250 940,270 970,220 1000,240 1030,200 1060,180 1090,160" fill="none" stroke="#22c55e" stroke-width="3" stroke-linecap="round" stroke-linejoin="round" opacity="0.7"/>
  <polyline points="700,420 730,400 760,410 790,370 820,390 850,350 880,360 910,330 940,340 970,310 1000,320 1030,290 1060,270 1090,260" fill="none" stroke="#3b82f6" stroke-width="2" stroke-linecap="round" stroke-linejoin="round" opacity="0.4"/>
  <!-- Bottom bar -->
  <rect x="0" y="560" width="1200" height="70" fill="rgba(0,0,0,0.3)"/>
  <text x="80" y="603" font-family="system-ui, sans-serif" font-size="22" fill="#94a3b8">notactuallytreyanastasio.github.io/phstats</text>
  <text x="1120" y="603" font-family="system-ui, sans-serif" font-size="22" fill="#475569" text-anchor="end">phstats</text>
</svg>
